<svg width="138" height="35" viewBox="0 0 138 35" fill="none" xmlns="http://www.w3.org/2000/svg">
<path d="M11.9351 30.3566C13.461 30.3566 14.6979 29.1197 14.6979 27.5938C14.6979 26.068 13.461 24.8311 11.9351 24.8311C10.4093 24.8311 9.17236 26.068 9.17236 27.5938C9.17236 29.1197 10.4093 30.3566 11.9351 30.3566Z" fill="#EA9C1F"/>
<path d="M11.9351 20.9905C13.461 20.9905 14.6979 19.7535 14.6979 18.2277C14.6979 16.7018 13.461 15.4649 11.9351 15.4649C10.4093 15.4649 9.17236 16.7018 9.17236 18.2277C9.17236 19.7535 10.4093 20.9905 11.9351 20.9905Z" fill="#EA9C1F"/>
<path d="M2.76277 30.3566C4.28861 30.3566 5.52555 29.1197 5.52555 27.5938C5.52555 26.068 4.28861 24.8311 2.76277 24.8311C1.23694 24.8311 0 26.068 0 27.5938C0 29.1197 1.23694 30.3566 2.76277 30.3566Z" fill="#EA9C1F"/>
<path d="M21.4781 27.7575C20.2637 26.4158 19.657 24.8048 19.657 22.9243C19.657 21.0446 20.2637 19.429 21.4781 18.0777C22.6918 16.727 24.3024 16.0514 26.3109 16.0514C27.9354 16.0514 29.2042 16.508 30.1171 17.4208V11.0955H33.5672V29.4143H30.1171V28.4289C29.2223 29.3236 27.9538 29.7703 26.3109 29.7703C24.3027 29.7699 22.6918 29.0992 21.4781 27.7575ZM23.1072 22.9243C23.1072 23.9471 23.4358 24.8137 24.0929 25.5257C24.7501 26.2376 25.5805 26.5936 26.5847 26.5936C27.5883 26.5936 28.451 26.2746 29.1722 25.6352C29.893 24.9965 30.254 24.0929 30.254 22.9243C30.254 21.7565 29.8884 20.8479 29.1587 20.2C28.4282 19.5524 27.5701 19.2281 26.5847 19.2281C25.5805 19.2281 24.7501 19.5933 24.0929 20.3234C23.4358 21.0538 23.1072 21.9208 23.1072 22.9243Z" fill="#F2F2F2"/>
<path d="M46.4915 25.471H50.2158C49.7045 26.7853 48.8645 27.8308 47.6967 28.6061C46.5281 29.3824 45.2319 29.7696 43.808 29.7696C41.7821 29.7696 40.1022 29.1171 38.7697 27.812C37.4372 26.5069 36.7708 24.8682 36.7708 22.8967C36.7708 20.9436 37.4187 19.3146 38.7153 18.0091C40.0111 16.704 41.6629 16.0511 43.6715 16.0511C45.6611 16.0511 47.2859 16.6994 48.5455 17.9956C49.8051 19.2922 50.4349 20.9074 50.4349 22.8423C50.4349 23.4443 50.4164 23.8462 50.3801 24.0471H40.3578C40.5403 24.8323 40.9467 25.4528 41.5765 25.9091C42.2063 26.3653 42.9499 26.5936 43.808 26.5936C44.9947 26.594 45.8894 26.2199 46.4915 25.471ZM40.4403 21.4731H46.7657C46.6561 20.7249 46.318 20.1271 45.7525 19.6798C45.1864 19.2324 44.4929 19.0087 43.6711 19.0087C42.8674 19.0087 42.1555 19.2374 41.5353 19.6933C40.9147 20.1503 40.5495 20.7438 40.4403 21.4731Z" fill="#F2F2F2"/>
<path d="M62.6185 25.471H66.3425C65.8311 26.7853 64.9915 27.8308 63.8233 28.6061C62.6551 29.3824 61.3589 29.7696 59.935 29.7696C57.9087 29.7696 56.2288 29.1171 54.8966 27.812C53.5638 26.5069 52.8977 24.8682 52.8977 22.8967C52.8977 20.9436 53.5453 19.3146 54.8419 18.0091C56.1381 16.704 57.7899 16.0511 59.7984 16.0511C61.7877 16.0511 63.4129 16.6994 64.6725 17.9956C65.9321 19.2922 66.5619 20.9074 66.5619 22.8423C66.5619 23.4443 66.5434 23.8462 66.5071 24.0471H56.4852C56.6676 24.8323 57.0737 25.4528 57.7038 25.9091C58.3336 26.3653 59.0769 26.5936 59.9353 26.5936C61.1213 26.594 62.0157 26.2199 62.6185 25.471ZM56.5669 21.4731H62.8919C62.7824 20.7249 62.4446 20.1271 61.8788 19.6798C61.3126 19.2324 60.6192 19.0087 59.7977 19.0087C58.994 19.0087 58.2821 19.2374 57.6615 19.6933C57.0413 20.1503 56.6765 20.7438 56.5669 21.4731Z" fill="#F2F2F2"/>
<path d="M83.6754 22.8969C83.6754 24.7774 83.0683 26.3929 81.8546 27.7439C80.6402 29.0949 79.0296 29.7698 77.0215 29.7698C75.3967 29.7698 74.1278 29.3139 73.2153 28.4007V34.9999H69.7651V16.4072H73.2153V17.393C74.1097 16.4986 75.3785 16.0513 77.0215 16.0513C79.0293 16.0513 80.6402 16.7269 81.8546 18.0776C83.0683 19.4289 83.6754 21.0352 83.6754 22.8969ZM80.2248 22.8969C80.2248 21.8748 79.8962 21.0075 79.2394 20.2959C78.5819 19.584 77.7512 19.228 76.7476 19.228C75.7434 19.228 74.8807 19.5473 74.1598 20.186C73.4386 20.8254 73.0784 21.729 73.0784 22.8969C73.0784 24.0654 73.4433 24.974 74.1737 25.6216C74.9038 26.2695 75.7619 26.5935 76.7476 26.5935C77.7512 26.5935 78.5819 26.2286 79.2394 25.4982C79.8966 24.7685 80.2248 23.9011 80.2248 22.8969Z" fill="#F2F2F2"/>
<path d="M93.7799 13.4779H97.23V16.4075H101.173V19.4199H97.23V24.7868C97.23 25.864 97.7318 26.4024 98.7361 26.4024H101.173V29.4144H98.7087C97.1205 29.4144 95.9018 29.0449 95.0533 28.3056C94.2048 27.5663 93.7799 26.5763 93.7799 25.3348V19.4199H91.3979V16.4075H93.7799V13.4779Z" fill="#F2F2F2"/>
<path d="M104.267 16.4073H107.718V17.7491C108.009 17.3109 108.466 16.9596 109.087 16.6947C109.707 16.4304 110.392 16.2978 111.14 16.2978H112.728V19.5837H111.113C110.036 19.5837 109.201 19.903 108.607 20.5417C108.014 21.1811 107.718 22.03 107.718 23.0883V29.4136H104.267V16.4073Z" fill="#F2F2F2"/>
<path d="M115.74 16.4074H119.19V29.414H115.74V16.4074Z" fill="#F2F2F2"/>
<path d="M137.098 22.8969C137.098 24.7774 136.491 26.3929 135.277 27.7439C134.063 29.0949 132.453 29.7698 130.445 29.7698C128.82 29.7698 127.551 29.3139 126.638 28.4007V34.9999H123.188V16.4072H126.638V17.393C127.533 16.4986 128.802 16.0513 130.445 16.0513C132.452 16.0513 134.063 16.7269 135.277 18.0776C136.491 19.4289 137.098 21.0352 137.098 22.8969ZM133.648 22.8969C133.648 21.8748 133.32 21.0075 132.663 20.2959C132.005 19.584 131.175 19.228 130.171 19.228C129.167 19.228 128.304 19.5473 127.583 20.186C126.862 20.8254 126.502 21.729 126.502 22.8969C126.502 24.0654 126.867 24.974 127.597 25.6216C128.327 26.2695 129.185 26.5935 130.171 26.5935C131.175 26.5935 132.005 26.2286 132.663 25.4982C133.32 24.7685 133.648 23.9011 133.648 22.8969Z" fill="#F2F2F2"/>
<path d="M121.79 5.1846L121.664 4.70203L121.529 4.98438C121.417 4.89655 121.302 4.80551 121.185 4.71127C120.953 4.52422 120.725 4.35815 120.504 4.21092L120.278 3.63625L120.173 4.00111C119.435 3.55695 118.793 3.32117 118.357 3.19849C118.357 3.22338 118.357 3.24827 118.354 3.27352C118.351 3.30233 118.346 3.33006 118.339 3.35745C118.727 3.5765 119.248 3.95844 119.734 4.59961L119.439 4.50395L119.927 4.87059C119.995 4.97265 120.062 5.0804 120.127 5.19384L119.953 5.25003L120.24 5.39939C120.274 5.46446 120.307 5.53168 120.34 5.60031L120.101 5.6693L120.461 5.86773C120.511 5.98615 120.559 6.11062 120.605 6.23899L120.369 6.20663L120.677 6.45201C120.697 6.51851 120.713 6.58394 120.728 6.64831L120.208 6.30763L120.752 6.77099C120.759 6.81402 120.766 6.85634 120.771 6.8983L120.506 6.80229L120.788 7.17035C120.789 7.26103 120.785 7.34922 120.776 7.43457L120.49 7.29908L120.741 7.66465C120.716 7.78592 120.684 7.90043 120.646 8.00782L120.525 7.82148L120.506 8.33072C120.27 8.79338 119.97 9.05724 119.97 9.05724C119.97 9.05724 119.755 8.71514 119.458 8.16358L119.562 7.7276L119.337 7.93492C119.278 7.82184 119.217 7.70235 119.154 7.57682L119.31 7.1796L119.095 7.45733C119.014 7.29304 118.931 7.1195 118.849 6.93884L118.915 6.3784L118.714 6.63764C118.621 6.42391 118.529 6.20237 118.441 5.97513L118.516 5.34676L118.34 5.70664C118.302 5.59995 118.264 5.49256 118.227 5.38445L118.348 4.94527L118.128 5.07969C118.025 4.74612 117.936 4.40864 117.868 4.07365L117.963 3.82223C117.882 3.85993 117.794 3.88198 117.702 3.88553C116.71 6.62092 116.459 10.0871 116.404 12.165C116.707 11.8936 117.127 11.6582 117.711 11.5217C117.711 11.5217 117.454 11.7759 116.874 12.3684C117.133 12.2123 117.463 12.0817 117.887 12.0007C117.887 12.0007 117.4 12.2528 117.017 12.7674C116.854 12.9871 116.77 13.2122 116.729 13.4103C119.679 12.5216 121.953 9.93561 122.288 6.67996C122.326 6.30834 122.336 5.94063 122.322 5.57755C122.153 5.45593 121.976 5.32542 121.79 5.1846Z" fill="url(#paint0_linear)"/>
<path fill-rule="evenodd" clip-rule="evenodd" d="M122.146 3.15928C122.146 3.15928 122.13 2.97415 122.091 2.6891C121.65 2.01354 121.024 1.85632 121.024 1.85632C121.548 1.84188 121.894 2.131 122.027 2.26681C122.002 2.12389 121.974 1.97083 121.941 1.81318C121.724 1.36534 121.303 1.1771 121.303 1.1771C121.501 1.16019 121.713 1.25781 121.823 1.3181C121.806 1.25489 121.788 1.19186 121.769 1.12932C121.728 1.06895 121.638 0.957903 121.52 0.923543C121.52 0.923543 121.608 0.88849 121.69 0.884833C121.571 0.538908 121.423 0.223421 121.241 0C121.241 0 120.958 0.115939 120.548 0.37083C120.633 0.444269 120.69 0.513076 120.69 0.513076C120.576 0.493617 120.436 0.505009 120.313 0.524127C120.229 0.581301 120.141 0.643463 120.052 0.710762C120.064 0.712146 120.074 0.713692 120.083 0.715421C120.162 0.731068 120.391 0.829574 120.391 0.829574C120.391 0.829574 119.972 0.851266 119.686 1.00525C119.685 1.00545 119.685 1.00565 119.684 1.00585C119.645 1.03985 119.605 1.07478 119.566 1.11066C119.961 1.18251 120.112 1.41705 120.112 1.41705C119.702 1.37651 119.188 1.47999 119.188 1.47999L119.192 1.47574C119.065 1.60924 118.94 1.75269 118.819 1.90645C118.819 1.90645 121.543 2.26349 122.146 3.15928Z" fill="url(#paint1_linear)"/>
<defs>
<linearGradient id="paint0_linear" x1="116.699" y1="8.21664" x2="122.079" y2="8.76933" gradientUnits="userSpaceOnUse">
<stop stop-color="#EC008C"/>
<stop offset="1" stop-color="#F7941E"/>
</linearGradient>
<linearGradient id="paint1_linear" x1="120.441" y1="2.98354" x2="120.753" y2="-0.0510288" gradientUnits="userSpaceOnUse">
<stop stop-color="#EC008C"/>
<stop offset="1" stop-color="#F7941E"/>
</linearGradient>
</defs>
</svg>
